<?xml version="1.0" standalone="no"?>
<!DOCTYPE svg PUBLIC "-//W3C//DTD SVG 20010904//EN"
 "http://www.w3.org/TR/2001/REC-SVG-20010904/DTD/svg10.dtd">
<svg version="1.0" xmlns="http://www.w3.org/2000/svg"
 width="192.000000pt" height="192.000000pt" viewBox="0 0 192.000000 192.000000"
 preserveAspectRatio="xMidYMid meet">

<g transform="translate(0.000000,192.000000) scale(0.100000,-0.100000)"
fill="#000000" stroke="none">
<path d="M805 1862 c-11 -4 -29 -12 -40 -19 -17 -10 -18 -14 -7 -35 7 -13 14
-33 15 -45 1 -16 5 -19 13 -12 8 6 14 5 18 -6 4 -11 2 -14 -6 -9 -7 5 -9 2 -5
-9 3 -9 0 -18 -9 -21 -18 -7 -18 -30 1 -46 9 -7 14 -29 13 -58 -1 -34 -3 -41
-9 -27 -7 19 -8 19 -8 -2 -1 -13 -5 -23 -11 -23 -6 0 -10 -39 -10 -97 l0 -98
-47 80 c-25 44 -47 82 -49 84 -20 23 -186 -139 -231 -224 -41 -80 -73 -186
-73 -246 l0 -49 170 0 c129 0 170 -3 170 -12 0 -9 3 -8 10 2 5 8 12 11 16 7
12 -12 -8 -26 -51 -35 -31 -6 -39 -12 -37 -27 3 -15 -1 -17 -28 -11 -18 3 -40
6 -49 6 -14 0 -14 2 -1 10 8 5 11 12 7 16 -11 11 -140 5 -151 -6 -7 -7 -4 -10
7 -10 31 0 18 -21 -23 -37 -25 -10 -40 -22 -40 -33 0 -21 -25 -44 -38 -36 -5
3 -9 -3 -8 -13 1 -12 -26 -41 -76 -80 -55 -45 -78 -69 -80 -88 -2 -19 -11 -29
-33 -36 -16 -5 -35 -10 -42 -12 -10 -3 -10 -10 0 -33 26 -61 90 -161 100 -155
6 3 7 1 3 -5 -9 -14 0 -25 95 -124 59 -61 82 -78 105 -79 25 0 26 -2 9 -9 -17
-7 -16 -9 10 -9 21 -1 26 -4 16 -10 -10 -7 7 -21 65 -55 90 -53 107 -57 98
-22 -3 13 -1 26 4 30 5 3 9 -9 10 -26 0 -17 6 -36 11 -41 8 -8 12 6 13 49 1
49 2 52 5 16 2 -23 8 -42 14 -42 5 0 9 -10 9 -22 0 -12 3 -18 7 -15 3 4 16 1
27 -7 34 -22 191 -50 161 -28 -19 13 -106 144 -100 150 3 4 10 0 15 -8 8 -13
10 -13 10 1 0 8 -6 21 -12 28 -11 10 -9 12 7 9 16 -3 19 -10 17 -35 -3 -23 8
-48 40 -97 l43 -66 91 0 c113 0 229 21 343 63 l86 32 -45 5 c-55 6 -39 20 25
22 35 0 45 4 41 14 -3 8 1 14 9 14 9 0 12 -6 8 -16 -7 -19 50 11 120 64 53 41
51 29 36 197 -6 66 -12 177 -14 248 -3 103 -1 127 10 127 8 0 13 -9 13 -22 -1
-13 -1 -101 0 -196 2 -136 5 -172 15 -166 9 6 9 4 2 -7 -6 -8 -8 -38 -5 -67
l5 -54 28 22 28 23 -6 96 c-4 53 -9 99 -11 102 -3 6 -5 96 -3 196 0 29 5 55
10 59 7 4 10 -32 9 -98 -2 -206 -2 -211 18 -203 14 5 15 4 5 -6 -8 -8 -13 -38
-13 -74 l1 -60 30 35 c27 32 29 39 23 85 -3 28 -7 100 -9 160 -2 100 -2 106
10 70 7 -22 9 -42 6 -45 -11 -9 -13 -42 -2 -35 6 3 11 1 11 -4 0 -6 -5 -11
-11 -11 -8 0 -8 -4 1 -15 6 -8 9 -27 6 -42 -3 -15 -2 -46 2 -67 l7 -40 19 29
c18 28 24 113 10 157 -2 9 0 19 6 23 6 4 10 3 9 -2 -1 -4 -1 -33 0 -63 l1 -55
20 25 c11 14 22 38 26 55 4 16 12 39 20 50 17 27 56 182 52 209 -2 16 -14 23
-55 32 -30 7 -53 8 -53 3 0 -5 -32 7 -72 27 -53 27 -68 38 -57 45 9 6 0 7 -26
3 -58 -8 -84 19 -78 78 6 52 -17 155 -52 234 -24 54 -26 68 -24 191 0 76 -3
139 -9 146 -11 14 -11 101 0 113 4 4 10 -1 14 -10 3 -9 11 -13 18 -9 6 3 8 3
4 -2 -4 -4 -2 -15 4 -23 7 -8 13 -22 13 -31 0 -12 9 -15 40 -14 59 4 70 10 55
29 -7 8 -19 13 -27 10 -7 -3 -21 7 -30 22 -23 37 -62 70 -136 115 l-62 38 -3
-27 c-2 -17 2 -31 12 -36 12 -7 16 -25 16 -69 0 -46 3 -58 13 -53 7 5 6 0 -3
-11 -9 -11 -10 -16 -2 -11 15 9 16 -6 1 -21 -7 -7 -8 -17 -1 -29 5 -11 8 -40
6 -66 -2 -32 1 -50 11 -58 8 -7 15 -25 15 -40 0 -16 6 -31 13 -33 9 -4 9 -6 0
-6 -15 -1 -36 36 -28 49 3 5 0 12 -6 16 -8 4 -9 3 -5 -4 13 -22 -4 -12 -66 38
-34 28 -67 50 -74 50 -10 0 -204 -325 -212 -356 -2 -7 5 -18 16 -26 27 -19 53
-62 62 -102 7 -31 5 -35 -17 -41 -31 -7 -43 1 -43 29 0 32 -34 73 -74 87 -26
9 -32 17 -29 33 3 20 3 20 -6 -1 -7 -14 -21 -24 -43 -27 -77 -10 -94 -3 -63
28 8 8 15 26 15 39 0 14 7 30 15 37 12 10 15 10 15 0 0 -9 4 -9 17 1 15 12 16
12 8 -1 -5 -9 1 -7 16 5 13 11 26 21 28 22 2 1 -1 9 -7 16 -7 8 -12 73 -13
173 -1 120 -4 153 -12 134 -9 -24 -10 -23 -19 20 -7 39 -5 47 11 61 15 12 19
27 17 68 -1 30 4 60 11 70 18 24 16 39 -10 56 -26 17 -121 27 -152 17z m140
-138 c0 -14 -3 -28 -7 -30 -4 -3 -8 12 -8 32 0 41 13 39 15 -2z m-25 -6 c0
-10 -5 -18 -11 -18 -5 0 -7 4 -4 10 3 6 -1 7 -9 4 -10 -4 -16 -1 -16 8 0 7 9
14 20 14 13 0 20 -7 20 -18z m538 -29 c-2 -6 -8 -10 -13 -10 -5 0 -11 4 -13
10 -2 6 4 11 13 11 9 0 15 -5 13 -11z m-8 -63 c0 -8 -4 -18 -10 -21 -5 -3 -10
3 -10 14 0 12 5 21 10 21 6 0 10 -6 10 -14z m-586 -46 c-6 -6 -10 -3 -10 10 0
13 4 16 10 10 7 -7 7 -13 0 -20z m40 24 c9 -3 16 -15 16 -26 0 -28 -34 -19
-38 10 -4 24 -2 25 22 16z m555 -51 c0 -11 -3 -13 -6 -5 -2 6 -9 10 -14 6 -5
-3 -9 0 -9 5 0 6 7 11 15 11 8 0 15 -8 14 -17z m18 -5 c-3 -8 -6 -5 -6 6 -1
11 2 17 5 13 3 -3 4 -12 1 -19z m-32 -29 c-4 -5 -2 -9 4 -9 6 0 8 -7 5 -15 -9
-22 -24 -8 -24 21 0 15 4 23 10 19 6 -4 8 -11 5 -16z m-527 -32 c2 -15 -1 -27
-5 -27 -15 0 -33 23 -33 43 0 30 34 16 38 -16z m30 -11 c1 -25 -3 -48 -9 -51
-7 -5 -9 8 -5 41 5 56 5 54 9 54 2 0 5 -20 5 -44z m-151 2 c-3 -7 -5 -2 -5 12
0 14 2 19 5 13 2 -7 2 -19 0 -25z m73 12 c0 -11 -4 -20 -9 -20 -5 0 -7 9 -4
20 3 11 7 20 9 20 2 0 4 -9 4 -20z m607 -2 c-3 -8 -6 -5 -6 6 -1 11 2 17 5 13
3 -3 4 -12 1 -19z m-700 -55 c-2 -16 -4 -5 -4 22 0 28 2 40 4 28 2 -13 2 -35
0 -50z m20 5 c-3 -8 -6 -5 -6 6 -1 11 2 17 5 13 3 -3 4 -12 1 -19z m108 -6
c-3 -3 -11 0 -18 7 -9 10 -8 11 6 5 10 -3 15 -9 12 -12z m573 -62 c-1 -23 -4
-36 -8 -30 -6 10 -1 70 6 70 2 0 3 -18 2 -40z m-558 0 c9 -6 17 -5 22 3 4 7 8
-9 8 -35 0 -36 -4 -48 -15 -48 -8 0 -15 7 -15 15 0 8 -7 15 -16 15 -9 0 -12 5
-8 11 5 8 -1 10 -19 5 -15 -3 -29 -1 -33 6 -4 7 -3 8 4 4 7 -4 12 -2 12 4 0 6
5 8 10 5 6 -3 15 -3 21 1 8 4 7 9 -2 15 -11 7 -11 9 1 9 8 0 22 -4 30 -10z
m-123 -32 c-3 -7 -5 -2 -5 12 0 14 2 19 5 13 2 -7 2 -19 0 -25z m-20 0 c-3 -8
-6 -5 -6 6 -1 11 2 17 5 13 3 -3 4 -12 1 -19z m20 -40 c-3 -8 -6 -5 -6 6 -1
11 2 17 5 13 3 -3 4 -12 1 -19z m70 -110 c-3 -8 -6 -5 -6 6 -1 11 2 17 5 13 3
-3 4 -12 1 -19z m-76 -181 c-13 -13 -15 1 -4 30 7 17 8 17 11 -1 2 -10 -1 -23
-7 -29z m457 -62 c-3 -3 -9 2 -12 12 -6 14 -5 15 5 6 7 -7 10 -15 7 -18z m162
10 c0 -8 -4 -15 -10 -15 -5 0 -7 7 -4 15 4 8 8 15 10 15 2 0 4 -7 4 -15z m145
-15 c-3 -5 0 -10 7 -11 10 0 10 -2 0 -6 -6 -2 -9 -10 -6 -16 5 -9 4 -9 -6 0
-12 11 -8 43 5 43 4 0 3 -4 0 -10z m-28 -22 c-3 -8 -6 -5 -6 6 -1 11 2 17 5
13 3 -3 4 -12 1 -19z m-309 -39 c-3 -8 -7 -3 -11 10 -4 17 -3 21 5 13 5 -5 8
-16 6 -23z m366 -5 c5 -14 4 -15 -9 -4 -17 14 -19 20 -6 20 5 0 12 -7 15 -16z
m-1024 -9 c0 -18 -36 -20 -43 -2 -3 8 4 14 19 15 15 1 24 -4 24 -13z m1093 -3
c-3 -7 -9 -10 -12 -5 -3 4 -10 11 -15 15 -4 4 1 6 12 5 12 -1 18 -6 15 -15z
m-476 -61 c5 -59 4 -61 -18 -62 -24 -2 -24 -2 -1 -6 19 -4 22 -10 22 -56 0
-37 -3 -48 -10 -37 -5 8 -10 25 -10 38 0 13 -4 21 -9 17 -6 -3 -21 17 -35 45
-14 27 -22 50 -18 50 25 -1 52 -14 55 -29 4 -14 5 -14 6 2 0 10 -6 20 -14 23
-16 7 -21 44 -6 44 5 0 13 9 16 21 10 31 17 16 22 -50z m173 14 c10 -12 10
-15 -4 -15 -9 0 -16 7 -16 15 0 8 2 15 4 15 2 0 9 -7 16 -15z m-131 -55 c1
-12 -1 -13 -8 -1 -7 11 -9 11 -14 0 -3 -8 -6 4 -6 26 0 40 0 40 14 15 8 -14
14 -32 14 -40z m-402 28 c-3 -8 -6 -5 -6 6 -1 11 2 17 5 13 3 -3 4 -12 1 -19z
m773 5 c0 -7 -7 -13 -15 -13 -8 0 -15 6 -15 13 0 8 7 14 15 14 8 0 15 -6 15
-14z m-313 -65 c-2 -13 -4 -3 -4 22 0 25 2 35 4 23 2 -13 2 -33 0 -45z m86 56
c9 -10 -4 -34 -19 -34 -8 0 -14 9 -14 20 0 19 19 27 33 14z m24 -16 c-3 -8 -6
-5 -6 6 -1 11 2 17 5 13 3 -3 4 -12 1 -19z m273 12 c0 -5 -5 -10 -11 -10 -5 0
-7 5 -4 10 3 6 8 10 11 10 2 0 4 -4 4 -10z m-42 -130 c-1 -71 -4 -130 -8 -130
-4 0 -7 44 -7 98 -1 53 -4 106 -9 116 -6 15 -4 17 6 11 10 -6 12 -4 7 7 -5 14
0 28 9 28 2 0 3 -58 2 -130z m-98 99 c0 -5 -4 -9 -8 -9 -5 0 -9 7 -9 15 0 8 4
12 9 9 4 -3 8 -9 8 -15z m-713 -21 c-3 -8 -6 -5 -6 6 -1 11 2 17 5 13 3 -3 4
-12 1 -19z m587 -19 c3 -19 5 -41 6 -49 1 -10 4 -9 10 5 6 13 8 -12 7 -70 -1
-79 -1 -82 -4 -22 -4 68 -22 95 -24 35 0 -18 -1 -55 -2 -81 -1 -35 -4 -46 -14
-43 -7 3 -13 -1 -13 -9 0 -9 6 -12 15 -9 8 4 15 2 15 -4 0 -5 -7 -12 -15 -16
-12 -4 -15 -27 -15 -116 0 -64 4 -110 10 -110 5 0 7 -7 4 -15 -15 -38 -21 1
-34 208 -15 252 -15 268 3 279 9 6 9 8 0 8 -7 0 -13 9 -13 20 0 11 7 20 15 20
12 0 15 -14 15 -67 0 -82 11 -76 16 9 2 35 3 65 4 67 1 15 11 -11 14 -40z
m294 -4 c1 -19 -2 -35 -7 -35 -4 0 -7 18 -7 39 0 49 12 45 14 -4z m-463 -62
c0 -59 -3 -76 -11 -69 -7 6 -10 14 -7 19 2 4 -1 7 -6 7 -7 0 -11 28 -11 70 0
65 2 70 18 61 14 -8 17 -24 17 -88z m192 55 c-3 -8 -6 -5 -6 6 -1 11 2 17 5
13 3 -3 4 -12 1 -19z m-700 -10 c-3 -8 -6 -5 -6 6 -1 11 2 17 5 13 3 -3 4 -12
1 -19z m830 0 c-3 -8 -6 -5 -6 6 -1 11 2 17 5 13 3 -3 4 -12 1 -19z m-17 2 c0
-5 -7 -10 -16 -10 -8 0 -12 5 -9 10 3 6 10 10 16 10 5 0 9 -4 9 -10z m230 -17
c0 -5 -5 -15 -10 -23 -8 -12 -10 -11 -10 8 0 12 5 22 10 22 6 0 10 -3 10 -7z
m-1315 -13 c3 -6 -1 -7 -9 -4 -18 7 -21 14 -7 14 6 0 13 -4 16 -10z m1082 -9
c0 -11 -6 -17 -14 -14 -18 7 -17 33 1 33 8 0 14 -8 13 -19z m20 -13 c-3 -7 -5
-2 -5 12 0 14 2 19 5 13 2 -7 2 -19 0 -25z m146 2 c3 -13 0 -20 -8 -20 -8 0
-13 9 -12 20 1 11 4 20 8 20 4 0 9 -9 12 -20z m-1287 -6 c-5 -14 -4 -15 9 -4
13 11 14 10 9 -3 -3 -10 1 -17 13 -21 10 -3 6 -4 -9 -2 -16 2 -28 -1 -28 -6 0
-5 -4 -7 -10 -3 -5 3 -8 -9 -6 -30 3 -38 -4 -44 -24 -20 -8 10 -9 15 -2 15 6
0 9 6 6 14 -3 7 2 21 11 30 9 9 12 16 6 16 -6 0 -11 5 -11 11 0 5 5 7 10 4 6
-3 10 -1 10 4 0 6 5 11 11 11 6 0 8 -7 5 -16z m854 -9 c0 -14 -2 -25 -4 -25
-2 0 -6 11 -8 25 -3 14 -1 25 3 25 5 0 9 -11 9 -25z m191 -50 c5 4 9 -3 9 -15
0 -19 -2 -20 -15 -6 -8 8 -14 30 -13 48 l1 33 4 -33 c2 -18 9 -30 14 -27z m83
20 c4 -10 -1 -15 -14 -15 -20 0 -26 11 -13 23 10 11 20 8 27 -8z m156 -5 c0
-11 -4 -20 -10 -20 -5 0 -10 9 -10 20 0 11 5 20 10 20 6 0 10 -9 10 -20z
m-1243 -6 c-3 -3 -12 -4 -19 -1 -8 3 -5 6 6 6 11 1 17 -2 13 -5z m816 -54 c4
-37 3 -50 -3 -40 -9 14 -15 109 -6 99 2 -2 6 -29 9 -59z m-853 30 c0 -5 -4
-10 -10 -10 -5 0 -10 5 -10 10 0 6 5 10 10 10 6 0 10 -4 10 -10z m40 -18 c0
-8 -1 -13 -3 -11 -1 2 -9 12 -16 22 -12 15 -12 17 3 11 9 -3 16 -13 16 -22z
m1077 21 c-4 -3 -2 -12 5 -20 6 -7 8 -16 4 -20 -3 -3 -6 -1 -6 5 0 7 -4 12
-10 12 -14 0 -7 -34 10 -57 14 -16 14 -17 -2 -4 -22 17 -23 8 -2 -25 9 -13 14
-27 10 -31 -3 -3 -6 -1 -6 5 0 7 -3 12 -7 12 -5 0 -7 -30 -6 -67 1 -48 0 -61
-7 -43 -4 14 -8 73 -9 133 -1 94 1 107 16 107 9 0 13 -3 10 -7z m163 -7 c0 -3
-4 -8 -10 -11 -5 -3 -10 -1 -10 4 0 6 5 11 10 11 6 0 10 -2 10 -4z m-70 -76
c0 -5 -5 -10 -11 -10 -5 0 -7 5 -4 10 3 6 8 10 11 10 2 0 4 -4 4 -10z m-339
-105 c4 24 6 1 6 -56 0 -53 3 -101 6 -105 3 -5 -1 -15 -9 -22 -8 -7 -14 -9
-15 -5 0 4 -2 24 -3 43 -1 19 -5 41 -9 48 -5 7 -3 12 5 12 9 0 9 3 2 8 -9 6
-12 156 -3 172 1 3 5 -26 9 -65 5 -63 6 -66 11 -30z m332 65 c-3 -11 -7 -20
-9 -20 -2 0 -4 9 -4 20 0 11 4 20 9 20 5 0 7 -9 4 -20z m-402 -14 c-8 -10 -9
-16 -1 -21 5 -3 10 -11 10 -16 0 -6 -4 -7 -10 -4 -5 3 -10 -1 -10 -10 0 -9 5
-13 10 -10 6 3 10 1 10 -4 0 -6 -4 -11 -9 -11 -10 0 -7 -52 4 -70 6 -9 4 -11
-4 -5 -15 9 -11 -36 4 -47 6 -4 2 -8 -7 -8 -16 0 -18 12 -18 104 0 98 3 110
29 115 2 1 -2 -5 -8 -13z m-36 -74 c0 -56 -2 -62 -20 -62 -16 0 -20 -7 -20
-30 0 -16 3 -30 8 -30 6 0 11 24 8 43 0 4 4 7 10 7 7 0 9 -8 4 -22 -3 -13 -7
-28 -7 -35 -1 -6 -7 -9 -15 -6 -7 3 -13 0 -13 -6 0 -6 -7 -11 -15 -11 -14 0
-14 3 0 24 19 29 10 56 -19 55 -16 -1 -17 -2 -3 -6 20 -5 23 -43 5 -61 -7 -7
-22 -12 -35 -12 -13 0 -23 -4 -23 -10 0 -5 -4 -10 -10 -10 -5 0 -9 5 -7 11 1
6 -4 14 -12 17 -9 3 -11 0 -6 -8 6 -9 2 -9 -16 0 -17 10 -24 10 -27 1 -2 -6
-11 -11 -20 -10 -9 0 -12 3 -6 5 7 3 10 14 7 24 -3 12 0 20 8 20 8 0 5 6 -7
15 -14 11 -15 15 -4 14 8 -1 38 0 65 2 45 2 42 3 -25 8 -57 5 -75 10 -75 21 0
8 5 14 11 13 6 -1 11 5 11 12 0 11 -4 12 -14 4 -10 -9 -13 -6 -14 12 -1 13 -1
29 0 34 1 6 -5 2 -12 -7 -14 -17 -45 -9 -34 9 3 5 0 10 -8 10 -8 0 -15 -3 -15
-7 0 -4 -7 -7 -15 -7 -8 0 -15 9 -15 20 0 14 4 17 18 12 9 -4 70 -10 135 -13
90 -3 117 -8 117 -18 0 -11 -20 -14 -82 -15 -46 -1 -69 -4 -53 -6 86 -10 95
-13 95 -36 0 -17 6 -22 26 -22 19 0 24 4 20 18 -2 9 0 17 5 17 5 0 9 -8 10
-17 0 -15 2 -15 8 2 l8 20 5 -20 c3 -11 6 -1 7 23 0 23 -3 42 -8 42 -5 0 -7
-9 -4 -20 4 -15 0 -20 -14 -20 -16 0 -19 5 -15 29 3 22 10 30 30 34 15 3 30 0
34 -6 5 -8 8 -5 8 6 0 11 6 17 13 14 8 -2 12 -25 12 -65z m315 52 c0 -8 -19
-13 -24 -6 -3 5 1 9 9 9 8 0 15 -2 15 -3z m-885 -14 c-3 -5 3 -10 14 -10 12 0
21 5 21 10 0 6 5 10 11 10 5 0 7 -4 4 -10 -3 -5 -1 -10 4 -10 6 0 11 5 11 11
0 5 5 7 10 4 20 -12 -1 -25 -40 -25 -37 0 -56 10 -43 24 10 9 15 7 8 -4z m125
-1 c0 -5 -4 -8 -9 -5 -5 4 -12 0 -14 -6 -3 -8 -6 -6 -6 5 -1 9 6 17 14 17 8 0
15 -5 15 -11z m21 -12 c-10 -9 -11 -8 -5 6 3 10 9 15 12 12 3 -3 0 -11 -7 -18z
m626 -29 c-3 -8 -6 -5 -6 6 -1 11 2 17 5 13 3 -3 4 -12 1 -19z m-661 -4 c-2
-6 0 -16 6 -22 8 -8 4 -9 -12 -5 -16 4 -21 3 -16 -5 4 -7 1 -12 -8 -12 -10 0
-14 8 -12 28 2 15 4 27 5 27 15 5 40 -2 37 -11z m774 6 c0 -5 -5 -10 -11 -10
-5 0 -7 5 -4 10 3 6 8 10 11 10 2 0 4 -4 4 -10z m-606 -11 c-2 -4 0 -10 6 -14
12 -7 4 -25 -12 -25 -5 0 -8 6 -5 14 4 10 0 12 -14 9 -10 -3 -19 -10 -19 -16
0 -6 -3 -7 -7 -4 -9 9 24 44 42 44 8 0 12 -4 9 -8z m-119 -55 c9 -15 12 -23 6
-20 -11 7 -35 46 -28 46 3 0 12 -12 22 -26z m672 -21 c-3 -10 -5 -2 -5 17 0
19 2 27 5 18 2 -10 2 -26 0 -35z m80 15 c-3 -8 -6 -5 -6 6 -1 11 2 17 5 13 3
-3 4 -12 1 -19z m-803 3 c3 -5 -1 -14 -9 -21 -8 -7 -13 -16 -10 -20 3 -5 1
-11 -4 -14 -5 -3 -11 10 -13 29 -3 28 -1 35 13 35 10 0 20 -4 23 -9z m159 2
c-7 -2 -19 -2 -25 0 -7 3 -2 5 12 5 14 0 19 -2 13 -5z m-266 -33 c-2 -24 -17
-15 -17 11 0 11 4 18 9 14 6 -3 9 -14 8 -25z m916 -10 c3 -11 1 -20 -4 -20 -5
0 -9 9 -9 20 0 11 2 20 4 20 2 0 6 -9 9 -20z m-263 -20 c0 -5 -5 -10 -11 -10
-5 0 -7 5 -4 10 3 6 8 10 11 10 2 0 4 -4 4 -10z m-770 -4 c0 -3 -4 -8 -10 -11
-5 -3 -10 -1 -10 4 0 6 5 11 10 11 6 0 10 -2 10 -4z m43 -3 c-7 -2 -19 -2 -25
0 -7 3 -2 5 12 5 14 0 19 -2 13 -5z m105 -2 c10 -6 10 -10 -3 -21 -12 -10 -15
-10 -15 4 0 9 -4 16 -10 16 -5 0 -9 -5 -7 -12 1 -6 -6 -14 -15 -16 -13 -2 -16
1 -12 11 3 10 -2 17 -13 20 -10 3 0 5 22 6 22 0 46 -3 53 -8z m80 -29 c2 -7
-2 -10 -12 -6 -9 3 -16 11 -16 16 0 13 23 5 28 -10z m542 8 c0 -5 -4 -10 -10
-10 -5 0 -10 5 -10 10 0 6 5 10 10 10 6 0 10 -4 10 -10z m-54 -20 c0 -11 -6
-20 -13 -20 -16 0 -17 12 -1 28 7 7 12 12 13 12 0 0 1 -9 1 -20z m-48 -2 c-6
-18 -28 -21 -28 -4 0 9 7 16 16 16 9 0 14 -5 12 -12z m202 2 c0 -5 -4 -10 -10
-10 -5 0 -10 5 -10 10 0 6 5 10 10 10 6 0 10 -4 10 -10z m-362 -17 c-21 -2
-55 -2 -75 0 -21 2 -4 4 37 4 41 0 58 -2 38 -4z m46 -45 c6 -4 -24 -8 -66 -8
-74 0 -113 14 -66 25 45 10 113 10 117 0 2 -5 9 -13 15 -17z m236 -2 c8 -2
-31 -4 -87 -5 -56 0 -104 2 -106 7 -5 7 162 5 193 -2z m-267 -43 c-7 -2 -21
-2 -30 0 -10 3 -4 5 12 5 17 0 24 -2 18 -5z"/>
<path d="M1363 550 c0 -30 2 -43 4 -27 2 15 2 39 0 55 -2 15 -4 2 -4 -28z"/>
<path d="M1205 670 c3 -5 8 -10 11 -10 2 0 4 5 4 10 0 6 -5 10 -11 10 -5 0 -7
-4 -4 -10z"/>
<path d="M951 314 c0 -11 3 -14 6 -6 3 7 2 16 -1 19 -3 4 -6 -2 -5 -13z"/>
<path d="M991 304 c0 -11 3 -14 6 -6 3 7 2 16 -1 19 -3 4 -6 -2 -5 -13z"/>
<path d="M975 250 c-3 -5 -1 -10 4 -10 6 0 11 5 11 10 0 6 -2 10 -4 10 -3 0
-8 -4 -11 -10z"/>
<path d="M771 1643 c0 -4 4 -17 9 -28 8 -19 9 -19 9 2 1 12 -3 25 -9 28 -5 3
-10 3 -9 -2z"/>
<path d="M935 1640 c-3 -5 1 -10 9 -10 9 0 16 5 16 10 0 6 -4 10 -9 10 -6 0
-13 -4 -16 -10z"/>
<path d="M947 1194 c7 -3 9 -12 6 -21 -4 -11 -2 -14 5 -9 18 11 14 36 -5 35
-10 0 -13 -3 -6 -5z"/>
<path d="M922 1155 c0 -16 2 -22 5 -12 2 9 2 23 0 30 -3 6 -5 -1 -5 -18z"/>
</g>
</svg>
